<svg width="10" height="10" viewBox="0 0 10 10" fill="none" xmlns="http://www.w3.org/2000/svg">
<path fill-rule="evenodd" clip-rule="evenodd" d="M5 0C5.37496 0 5.67927 0.30452 5.67927 0.679732V4.31954L9.32073 4.31972C9.69569 4.31972 10 4.62424 10 4.99946C10 5.37467 9.69569 5.67919 9.32073 5.67919L5.67927 5.67901V9.32027C5.67927 9.69548 5.37496 10 5 10C4.62504 10 4.32073 9.69548 4.32073 9.32027V5.67901L0.679271 5.67919C0.303407 5.67919 0 5.37467 0 4.99946C0 4.62424 0.303407 4.31972 0.679271 4.31972L4.32073 4.31954V0.679732C4.32073 0.30452 4.62504 0 5 0Z" fill="white"/>
</svg>
